<mxfile host="app.diagrams.net" modified="2024-03-06T16:11:55.095Z" agent="Mozilla/5.0 (Windows NT 10.0; Win64; x64) AppleWebKit/537.36 (KHTML, like Gecko) Chrome/122.0.0.0 Safari/537.36 Edg/122.0.0.0" etag="fXS-WV5ufxn-vl8CVrfI" version="22.1.16" type="device">
  <diagram name="Page-1" id="2YBvvXClWsGukQMizWep">
    <mxGraphModel dx="1305" dy="788" grid="0" gridSize="10" guides="1" tooltips="1" connect="1" arrows="1" fold="1" page="0" pageScale="1" pageWidth="850" pageHeight="1100" math="0" shadow="0">
      <root>
        <mxCell id="0" />
        <mxCell id="1" parent="0" />
        <mxCell id="gCp9YEJqmAMPtKSWzM85-25" value="" style="edgeStyle=orthogonalEdgeStyle;rounded=0;orthogonalLoop=1;jettySize=auto;html=1;" edge="1" parent="1" source="gCp9YEJqmAMPtKSWzM85-23" target="gCp9YEJqmAMPtKSWzM85-24">
          <mxGeometry relative="1" as="geometry" />
        </mxCell>
        <mxCell id="gCp9YEJqmAMPtKSWzM85-23" value="Start" style="strokeWidth=2;html=1;shape=mxgraph.flowchart.start_1;whiteSpace=wrap;" vertex="1" parent="1">
          <mxGeometry x="170" y="40" width="100" height="60" as="geometry" />
        </mxCell>
        <mxCell id="gCp9YEJqmAMPtKSWzM85-27" value="" style="edgeStyle=orthogonalEdgeStyle;rounded=0;orthogonalLoop=1;jettySize=auto;html=1;" edge="1" parent="1" source="gCp9YEJqmAMPtKSWzM85-24" target="gCp9YEJqmAMPtKSWzM85-26">
          <mxGeometry relative="1" as="geometry" />
        </mxCell>
        <mxCell id="gCp9YEJqmAMPtKSWzM85-24" value="Users select files" style="rounded=1;whiteSpace=wrap;html=1;absoluteArcSize=1;arcSize=0;strokeWidth=2;" vertex="1" parent="1">
          <mxGeometry x="150" y="150" width="140" height="50" as="geometry" />
        </mxCell>
        <mxCell id="gCp9YEJqmAMPtKSWzM85-29" value="" style="edgeStyle=orthogonalEdgeStyle;rounded=0;orthogonalLoop=1;jettySize=auto;html=1;" edge="1" parent="1" source="gCp9YEJqmAMPtKSWzM85-26" target="gCp9YEJqmAMPtKSWzM85-28">
          <mxGeometry relative="1" as="geometry" />
        </mxCell>
        <mxCell id="gCp9YEJqmAMPtKSWzM85-26" value="App displays the selected files in a list view" style="rounded=1;whiteSpace=wrap;html=1;absoluteArcSize=1;arcSize=0;strokeWidth=2;" vertex="1" parent="1">
          <mxGeometry x="150" y="250" width="140" height="50" as="geometry" />
        </mxCell>
        <mxCell id="gCp9YEJqmAMPtKSWzM85-31" value="" style="edgeStyle=orthogonalEdgeStyle;rounded=0;orthogonalLoop=1;jettySize=auto;html=1;" edge="1" parent="1" source="gCp9YEJqmAMPtKSWzM85-28" target="gCp9YEJqmAMPtKSWzM85-30">
          <mxGeometry relative="1" as="geometry" />
        </mxCell>
        <mxCell id="gCp9YEJqmAMPtKSWzM85-28" value="Users select a desired name to save the result" style="rounded=1;whiteSpace=wrap;html=1;absoluteArcSize=1;arcSize=0;strokeWidth=2;" vertex="1" parent="1">
          <mxGeometry x="150" y="360" width="140" height="50" as="geometry" />
        </mxCell>
        <mxCell id="gCp9YEJqmAMPtKSWzM85-33" value="" style="edgeStyle=orthogonalEdgeStyle;rounded=0;orthogonalLoop=1;jettySize=auto;html=1;" edge="1" parent="1" source="gCp9YEJqmAMPtKSWzM85-30" target="gCp9YEJqmAMPtKSWzM85-32">
          <mxGeometry relative="1" as="geometry" />
        </mxCell>
        <mxCell id="gCp9YEJqmAMPtKSWzM85-30" value="App extract comments in the selected files into the desired file" style="rounded=1;whiteSpace=wrap;html=1;absoluteArcSize=1;arcSize=0;strokeWidth=2;" vertex="1" parent="1">
          <mxGeometry x="150" y="470" width="140" height="50" as="geometry" />
        </mxCell>
        <mxCell id="gCp9YEJqmAMPtKSWzM85-32" value="End" style="strokeWidth=2;html=1;shape=mxgraph.flowchart.start_1;whiteSpace=wrap;" vertex="1" parent="1">
          <mxGeometry x="170" y="580" width="100" height="60" as="geometry" />
        </mxCell>
      </root>
    </mxGraphModel>
  </diagram>
</mxfile>
